<svg width="100" height="100" viewBox="0 0 100 100" fill="none" xmlns="http://www.w3.org/2000/svg">
<g clip-path="url(#clip0_1_2)">
<rect x="2.5" y="2.5" width="95" height="95" rx="7.5" stroke="black" stroke-width="5"/>
<rect x="5" y="5" width="90" height="18" fill="black"/>
<rect x="53" y="71" width="15" height="15" rx="7.5" fill="black"/>
<rect x="11" y="50" width="15" height="15" rx="7.5" fill="black"/>
<rect x="11" y="71" width="15" height="15" rx="7.5" fill="black"/>
<rect x="32" y="29" width="15" height="15" rx="7.5" fill="black"/>
<rect x="32" y="50" width="15" height="15" rx="7.5" fill="black"/>
<rect x="32" y="71" width="15" height="15" rx="7.5" fill="black"/>
<rect x="53" y="29" width="15" height="15" rx="7.5" fill="black"/>
<rect x="53" y="50" width="15" height="15" rx="7.5" fill="black"/>
<rect x="74" y="29" width="15" height="15" rx="7.5" fill="black"/>
<rect x="74" y="50" width="15" height="15" rx="7.5" fill="black"/>
</g>
<defs>
<clipPath id="clip0_1_2">
<rect width="100" height="100" fill="white"/>
</clipPath>
</defs>
</svg>
