<svg width="475" height="311" viewBox="0 0 475 311" fill="none" xmlns="http://www.w3.org/2000/svg">
<path d="M18.096 40.406L30.566 14.422L30.682 40.406H40.368C41.528 37.796 42.572 35.418 42.978 34.606L46.284 27.994C57.826 4.852 58.522 3.808 63.278 2.88L63.626 1.314H49.416L49.126 2.88C51.62 3.228 52.78 4.272 52.78 6.186C52.78 7.52 52.548 8.332 50.866 12.566C48.604 18.308 48.43 18.714 47.154 21.498L43.79 28.748L44.138 1.314H32.306C31.146 6.534 26.912 17.206 21.46 28.806L21.402 10.478C21.286 4.62 22.33 2.938 26.158 2.88L26.506 1.314H3.48L3.132 2.88C7.25 3.576 7.772 4.272 7.714 9.376L8.41 40.406H18.096ZM79.7622 38.376L78.8342 38.26C76.8622 38.086 75.8762 37.216 75.8762 35.708C75.8762 34.664 75.9342 34.49 76.6882 31.068L81.5022 8.448C82.2562 4.852 83.1842 3.692 85.7362 3.17L87.1282 2.938L87.4762 1.314H64.8562L64.5082 2.938L65.4362 3.054C67.4082 3.228 68.3362 4.04 68.3362 5.606C68.3362 6.65 68.2782 6.882 67.5822 10.246L62.7682 32.866C62.0142 36.462 61.0862 37.622 58.5342 38.144L57.1422 38.376L56.7942 40H79.4142L79.7622 38.376ZM121.119 24.166H118.799C112.651 34.664 109.287 37.506 103.081 37.68H101.747L107.953 8.448C108.707 4.852 109.635 3.692 112.187 3.228L113.579 2.938L113.927 1.314H91.3074L90.9594 2.938L91.8874 3.054C93.8594 3.228 94.8454 4.098 94.8454 5.606C94.8454 6.65 94.7874 6.824 94.0334 10.246L89.2194 32.924C88.4654 36.462 87.5374 37.622 84.9854 38.144L83.5934 38.376L83.2454 40H117.755L121.119 24.166ZM128.86 1.314L128.512 2.938L129.44 3.054C131.412 3.228 132.34 4.04 132.34 5.606C132.34 6.592 132.282 6.824 131.586 10.246L126.772 32.866C126.018 36.404 125.09 37.564 122.538 38.144L121.146 38.376L120.798 40H148.174C152.06 40 155.772 39.246 157.802 38.144C161.34 36.114 163.66 32.112 163.66 28.052C163.66 24.978 162.268 22.716 159.6 21.208C157.976 20.338 156.236 19.874 152.698 19.41C156.352 18.83 158.324 18.192 160.528 16.858C163.718 14.886 165.458 12.044 165.458 8.622C165.458 3.634 162.036 1.314 154.554 1.314H128.86ZM143.36 18.54L146.55 3.46C147.13 3.402 147.768 3.402 148.116 3.402C150.9 3.402 152.408 5.026 152.408 8.042C152.408 11.29 150.842 15.408 148.986 17.09C147.826 18.134 146.608 18.54 144.404 18.54H143.36ZM139.3 37.68L142.954 20.28H143.998C148.058 20.28 149.74 21.73 149.74 25.21C149.74 28.922 148.232 33.388 146.318 35.476C144.81 37.1 143.128 37.68 140.17 37.68H139.3ZM208.399 1.314H173.889L173.541 2.996L174.469 3.054C176.441 3.228 177.427 4.098 177.427 5.664C177.427 6.65 177.369 6.882 176.615 10.246L171.801 32.924C171.047 36.462 170.119 37.622 167.567 38.144L166.175 38.376L165.827 40H202.599L206.021 24.166H203.701C197.553 34.78 194.131 37.622 187.635 37.68H184.329L187.983 20.338H189.375C193.145 20.396 194.421 22.426 194.479 28.4H196.045L199.699 11.174H198.191C196.103 16.22 193.377 18.656 190.013 18.424H188.447L191.579 3.46H195.117C200.279 3.286 202.541 6.244 203.817 14.886H206.137L208.399 1.314ZM228.991 20.164L230.499 20.106C234.037 20.106 235.893 21.498 235.893 24.166C235.893 25.326 235.777 25.906 234.965 29.154C234.327 31.88 234.095 33.33 234.095 34.722C234.095 38.608 236.763 40.754 241.519 40.754C247.377 40.754 251.089 37.854 254.163 30.836L253.699 29.502C251.321 33.794 250.161 35.244 248.943 35.244C248.479 35.244 248.189 34.78 248.189 33.968C248.189 33.098 248.305 32.228 248.769 29.386C249.117 27.124 249.233 26.37 249.233 25.674C249.233 23.702 248.189 22.136 246.275 21.324C244.303 20.512 243.375 20.28 238.155 19.352C242.737 18.83 245.231 18.25 247.609 17.206C251.611 15.524 253.815 12.392 253.815 8.506C253.815 3.866 250.161 1.314 243.491 1.314H214.839L214.491 2.938L215.477 3.054C217.391 3.228 218.377 4.04 218.377 5.606C218.377 6.592 218.319 6.824 217.623 10.246L212.809 32.866C212.055 36.404 211.243 37.448 208.575 38.144L207.183 38.376L206.835 40H229.629L229.977 38.376L228.875 38.26C226.961 38.144 225.917 37.216 225.917 35.708C225.917 34.664 225.975 34.49 226.729 31.068L228.991 20.164ZM232.645 3.228H234.443C238.155 3.228 239.721 4.678 239.721 8.042C239.721 9.956 239.141 12.334 238.213 14.248C237.227 16.278 236.125 17.38 234.559 17.902C233.283 18.366 233.167 18.366 229.397 18.366L232.645 3.228ZM295.402 1.314H260.776L260.428 2.996L261.356 3.054C263.27 3.228 264.256 4.098 264.256 5.664C264.256 6.65 264.198 6.882 263.502 10.246L258.688 32.866C257.934 36.462 257.006 37.622 254.454 38.144L253.062 38.376L252.714 40H275.508L275.914 38.376L274.754 38.26C272.84 38.144 271.796 37.216 271.796 35.708C271.796 34.664 271.854 34.49 272.608 31.068L274.87 20.338H276.726C279.858 20.338 281.54 22.426 281.54 26.312C281.54 26.718 281.482 27.704 281.424 28.574H283.106L286.818 11.116H285.136C282.99 16.452 280.554 18.656 277.016 18.424H275.276L278.466 3.46H281.366C287.282 3.228 289.428 5.896 290.646 14.886H292.966L295.402 1.314ZM319.38 0.56C311.608 0.56 305.518 2.416 301.864 5.896C297.514 10.014 293.744 19.99 293.744 27.298C293.744 36.984 298.442 40.754 310.506 40.754C318.742 40.754 324.484 39.072 327.906 35.65C332.43 31.126 336.026 21.324 336.026 13.436C336.026 9.028 334.518 5.432 331.966 3.518C329.298 1.604 325.006 0.56 319.38 0.56ZM318.8 2.474C320.714 2.474 321.7 3.982 321.7 6.824C321.7 10.246 319.96 20.28 318.162 27.124C315.9 35.882 314.044 38.84 310.796 38.84C308.94 38.84 308.07 37.448 308.07 34.316C308.07 28.806 310.738 15.524 313.348 8.216C314.682 4.504 316.596 2.474 318.8 2.474ZM357.452 20.164L358.96 20.106C362.498 20.106 364.354 21.498 364.354 24.166C364.354 25.326 364.238 25.906 363.426 29.154C362.788 31.88 362.556 33.33 362.556 34.722C362.556 38.608 365.224 40.754 369.98 40.754C375.838 40.754 379.55 37.854 382.624 30.836L382.16 29.502C379.782 33.794 378.622 35.244 377.404 35.244C376.94 35.244 376.65 34.78 376.65 33.968C376.65 33.098 376.766 32.228 377.23 29.386C377.578 27.124 377.694 26.37 377.694 25.674C377.694 23.702 376.65 22.136 374.736 21.324C372.764 20.512 371.836 20.28 366.616 19.352C371.198 18.83 373.692 18.25 376.07 17.206C380.072 15.524 382.276 12.392 382.276 8.506C382.276 3.866 378.622 1.314 371.952 1.314H343.3L342.952 2.938L343.938 3.054C345.852 3.228 346.838 4.04 346.838 5.606C346.838 6.592 346.78 6.824 346.084 10.246L341.27 32.866C340.516 36.404 339.704 37.448 337.036 38.144L335.644 38.376L335.296 40H358.09L358.438 38.376L357.336 38.26C355.422 38.144 354.378 37.216 354.378 35.708C354.378 34.664 354.436 34.49 355.19 31.068L357.452 20.164ZM361.106 3.228H362.904C366.616 3.228 368.182 4.678 368.182 8.042C368.182 9.956 367.602 12.334 366.674 14.248C365.688 16.278 364.586 17.38 363.02 17.902C361.744 18.366 361.628 18.366 357.858 18.366L361.106 3.228ZM423.963 0.617999H423.035L420.135 2.126C416.481 0.965998 413.929 0.56 410.159 0.56C403.257 0.56 397.805 2.3 393.977 5.722C388.757 10.42 385.393 18.772 385.393 27.124C385.393 36.636 390.323 40.754 401.749 40.754C410.101 40.754 413.929 38.956 418.685 32.634L417.003 30.314H416.771C412.943 35.94 408.941 38.724 404.881 38.724C401.691 38.724 399.835 36.346 399.835 32.228C399.835 27.82 401.749 18.482 404.011 11.754C406.505 4.562 408.245 2.474 411.957 2.474C415.611 2.474 417.525 5.954 418.801 14.886H420.947L423.963 0.617999ZM462.376 1.314H427.866L427.518 2.996L428.446 3.054C430.418 3.228 431.404 4.098 431.404 5.664C431.404 6.65 431.346 6.882 430.592 10.246L425.778 32.924C425.024 36.462 424.096 37.622 421.544 38.144L420.152 38.376L419.804 40H456.576L459.998 24.166H457.678C451.53 34.78 448.108 37.622 441.612 37.68H438.306L441.96 20.338H443.352C447.122 20.396 448.398 22.426 448.456 28.4H450.022L453.676 11.174H452.168C450.08 16.22 447.354 18.656 443.99 18.424H442.424L445.556 3.46H449.094C454.256 3.286 456.518 6.244 457.794 14.886H460.114L462.376 1.314ZM469.222 28.864C465.336 28.864 462.494 31.532 462.494 35.244C462.494 38.666 464.408 40.58 467.772 40.58C471.832 40.58 474.558 37.912 474.558 33.968C474.558 30.72 472.644 28.864 469.222 28.864ZM36.772 54.792H35.844L33.756 56.3C28.768 54.908 26.622 54.56 23.548 54.56C19.082 54.56 14.79 55.72 11.832 57.808C8.758 59.954 6.844 63.84 6.844 67.9C6.844 71.148 8.004 73.7 10.498 76.078C12.006 77.47 13.978 78.688 17.922 80.66C21.75 82.574 22.91 83.966 22.91 86.46C22.91 89.998 19.778 92.84 15.892 92.84C12.238 92.84 8.99 90.346 7.598 86.402C6.844 84.14 6.38 81.82 6.148 78.166H3.828L0.29 94.754H1.218L3.886 92.724C8.874 94.29 11.658 94.754 16.182 94.754C21.634 94.754 25.346 93.71 28.71 91.274C32.364 88.606 34.51 84.662 34.51 80.66C34.51 78.398 33.756 76.02 32.538 74.454C31.378 73.004 30.16 72.134 26.274 70.046C21.112 67.262 20.996 67.204 19.662 66.218C18.154 65.058 17.226 63.318 17.226 61.52C17.226 58.504 19.488 56.474 22.794 56.474C27.956 56.474 31.262 60.302 32.19 67.378H34.104L36.772 54.792ZM57.521 78.224C64.423 78.224 68.019 77.76 71.557 76.368C77.821 73.99 81.591 69.002 81.591 63.144C81.591 57.808 78.111 55.314 70.571 55.314H44.239L43.891 56.938L44.819 57.054C46.791 57.228 47.719 58.04 47.719 59.606C47.719 60.65 47.661 60.882 46.965 64.246L42.151 86.866C41.397 90.462 40.469 91.622 37.917 92.144L36.525 92.376L36.177 94H58.971L59.377 92.376L58.217 92.26C56.303 92.144 55.259 91.216 55.259 89.708C55.259 88.722 55.317 88.49 56.071 85.068L57.521 78.224ZM61.929 57.46H63.379C66.511 57.46 67.613 58.62 67.613 61.926C67.613 63.26 67.323 65.348 66.859 67.204C66.163 70.278 65.235 72.134 63.727 73.932C62.161 75.672 60.479 76.426 57.927 76.426L61.929 57.46ZM125.918 55.314H112.52L112.172 56.88C115.304 57.402 116.174 58.272 116.174 60.766C116.174 63.782 114.55 73.178 112.868 80.08C110.664 88.896 107.648 92.318 101.964 92.318C98.2525 92.318 96.3385 90.578 96.3385 87.098C96.3385 86.054 96.6285 83.676 96.8605 82.516L101.152 62.448C101.848 58.91 102.66 57.866 105.328 57.17L106.372 56.938L106.72 55.314H84.6805L84.3325 56.938L85.0285 57.054C87.1165 57.286 87.9865 58.04 87.9865 59.664C87.9865 60.592 87.9285 60.882 87.2325 64.246L83.8105 80.254C83.4625 81.936 83.2305 83.676 83.2305 84.836C83.2305 87.794 84.3905 90.52 86.3045 92.086C88.6245 93.884 92.0465 94.754 97.0345 94.754C104.052 94.754 108.344 93.13 111.534 89.244C113.506 86.866 114.434 84.43 116.116 77.644L119.074 65.464C120.408 59.606 121.858 57.692 125.57 56.88L125.918 55.314ZM142.954 74.164L144.462 74.106C148 74.106 149.856 75.498 149.856 78.166C149.856 79.326 149.74 79.906 148.928 83.154C148.29 85.88 148.058 87.33 148.058 88.722C148.058 92.608 150.726 94.754 155.482 94.754C161.34 94.754 165.052 91.854 168.126 84.836L167.662 83.502C165.284 87.794 164.124 89.244 162.906 89.244C162.442 89.244 162.152 88.78 162.152 87.968C162.152 87.098 162.268 86.228 162.732 83.386C163.08 81.124 163.196 80.37 163.196 79.674C163.196 77.702 162.152 76.136 160.238 75.324C158.266 74.512 157.338 74.28 152.118 73.352C156.7 72.83 159.194 72.25 161.572 71.206C165.574 69.524 167.778 66.392 167.778 62.506C167.778 57.866 164.124 55.314 157.454 55.314H128.802L128.454 56.938L129.44 57.054C131.354 57.228 132.34 58.04 132.34 59.606C132.34 60.592 132.282 60.824 131.586 64.246L126.772 86.866C126.018 90.404 125.206 91.448 122.538 92.144L121.146 92.376L120.798 94H143.592L143.94 92.376L142.838 92.26C140.924 92.144 139.88 91.216 139.88 89.708C139.88 88.664 139.938 88.49 140.692 85.068L142.954 74.164ZM146.608 57.228H148.406C152.118 57.228 153.684 58.678 153.684 62.042C153.684 63.956 153.104 66.334 152.176 68.248C151.19 70.278 150.088 71.38 148.522 71.902C147.246 72.366 147.13 72.366 143.36 72.366L146.608 57.228ZM210.511 54.56H209.583L206.741 56.126C203.435 54.966 200.651 54.56 196.533 54.56C188.239 54.56 182.381 56.532 178.611 60.65C174.377 65.29 171.129 74.512 171.129 81.994C171.129 90.578 176.001 94.754 185.977 94.754C188.761 94.754 191.603 94.522 196.243 93.884C198.679 93.594 200.245 93.42 200.999 93.42C202.565 93.42 203.261 93.71 204.247 94.754H205.407L207.959 82.69C208.713 79.5 209.235 77.934 209.815 77.412C210.221 77.006 210.801 76.774 212.947 76.252L213.237 74.686H192.125L191.777 76.252C194.967 77.006 195.779 77.644 195.779 79.5C195.779 80.95 194.851 85.648 194.155 87.794C192.995 91.448 191.487 92.84 188.761 92.84C186.499 92.84 185.339 91.448 185.339 88.838C185.339 85.01 187.427 73.642 189.109 67.958C191.719 59.316 193.923 56.474 198.099 56.474C200.593 56.474 202.159 57.634 203.261 60.36C203.783 61.694 203.899 61.984 205.349 68.886H207.495L210.511 54.56ZM254.788 55.314H220.278L219.93 56.996L220.858 57.054C222.83 57.228 223.816 58.098 223.816 59.664C223.816 60.65 223.758 60.882 223.004 64.246L218.19 86.924C217.436 90.462 216.508 91.622 213.956 92.144L212.564 92.376L212.216 94H248.988L252.41 78.166H250.09C243.942 88.78 240.52 91.622 234.024 91.68H230.718L234.372 74.338H235.764C239.534 74.396 240.81 76.426 240.868 82.4H242.434L246.088 65.174H244.58C242.492 70.22 239.766 72.656 236.402 72.424H234.836L237.968 57.46H241.506C246.668 57.286 248.93 60.244 250.206 68.886H252.526L254.788 55.314ZM282.394 54.56C274.622 54.56 268.532 56.416 264.878 59.896C260.528 64.014 256.758 73.99 256.758 81.298C256.758 90.984 261.456 94.754 273.52 94.754C281.756 94.754 287.498 93.072 290.92 89.65C295.444 85.126 299.04 75.324 299.04 67.436C299.04 63.028 297.532 59.432 294.98 57.518C292.312 55.604 288.02 54.56 282.394 54.56ZM281.814 56.474C283.728 56.474 284.714 57.982 284.714 60.824C284.714 64.246 282.974 74.28 281.176 81.124C278.914 89.882 277.058 92.84 273.81 92.84C271.954 92.84 271.084 91.448 271.084 88.316C271.084 82.806 273.752 69.524 276.362 62.216C277.696 58.504 279.61 56.474 281.814 56.474ZM323.482 55.314H305.85L305.502 56.88C309.156 57.634 310.2 58.504 310.2 60.94C310.2 62.1 310.026 63.028 309.33 65.87L305.618 80.312C303.008 90.23 301.906 91.796 297.382 92.434L297.034 94H311.244L311.592 92.434C308.344 91.97 307.3 90.984 307.3 88.548C307.3 87.562 307.3 87.504 308.228 81.878L311.766 63.376L323.656 94H332.878L338.562 70.336C341.288 59.432 342.332 57.75 347.03 56.88L347.32 55.314H333.922L333.574 56.88C336.706 57.344 337.692 58.446 337.692 61.404C337.692 62.738 337.344 65 336.532 68.944L333.922 81.704L323.482 55.314ZM349.54 82.864C345.654 82.864 342.812 85.532 342.812 89.244C342.812 92.666 344.726 94.58 348.09 94.58C352.15 94.58 354.876 91.912 354.876 87.968C354.876 84.72 352.962 82.864 349.54 82.864ZM18.096 148.406L30.566 122.422L30.682 148.406H40.368C41.528 145.796 42.572 143.418 42.978 142.606L46.284 135.994C57.826 112.852 58.522 111.808 63.278 110.88L63.626 109.314H49.416L49.126 110.88C51.62 111.228 52.78 112.272 52.78 114.186C52.78 115.52 52.548 116.332 50.866 120.566C48.604 126.308 48.43 126.714 47.154 129.498L43.79 136.748L44.138 109.314H32.306C31.146 114.534 26.912 125.206 21.46 136.806L21.402 118.478C21.286 112.62 22.33 110.938 26.158 110.88L26.506 109.314H3.48L3.132 110.88C7.25 111.576 7.772 112.272 7.714 117.376L8.41 148.406H18.096ZM79.3562 126.598L81.5022 116.448C82.2562 112.736 83.0102 111.808 85.7362 111.054L86.1422 110.938L86.4902 109.314H64.8562L64.5082 110.938L65.4362 111.054C67.4082 111.228 68.3362 112.098 68.3362 113.606C68.3362 114.65 68.2782 114.882 67.5822 118.246L62.7682 140.866C62.0142 144.462 61.0862 145.622 58.5342 146.144L57.1422 146.376L56.7942 148H78.6602L79.0082 146.376L78.6022 146.318C76.8622 146.086 75.8762 145.158 75.8762 143.708C75.8762 143.07 75.9922 142.084 76.2242 141.156C76.3402 140.576 76.5142 139.88 76.6882 139.068L78.8922 128.744H87.9402L85.4462 140.634C84.6922 144.52 83.7062 145.912 81.6182 146.202L80.5162 146.376L80.1682 148H102.034L102.382 146.376L101.454 146.26C99.4822 146.086 98.4962 145.216 98.4962 143.708C98.4962 142.664 98.5542 142.49 99.2502 139.068L104.064 116.448C104.818 112.91 105.746 111.692 108.298 111.17L109.69 110.938L110.038 109.314H88.2302L87.8822 110.938L88.5202 111.054C89.9702 111.286 90.9562 112.33 90.9562 113.664C90.9562 114.244 90.8402 115.23 90.5502 116.448L88.4042 126.598H79.3562ZM128.303 146.376L127.375 146.26C125.403 146.086 124.417 145.216 124.417 143.708C124.417 142.664 124.475 142.49 125.229 139.068L130.043 116.448C130.797 112.852 131.725 111.692 134.277 111.17L135.669 110.938L136.017 109.314H113.397L113.049 110.938L113.977 111.054C115.949 111.228 116.877 112.04 116.877 113.606C116.877 114.65 116.819 114.882 116.123 118.246L111.309 140.866C110.555 144.462 109.627 145.622 107.075 146.144L105.683 146.376L105.335 148H127.955L128.303 146.376ZM177.079 109.314H138.451L135.087 122.886H137.407C143.787 113.316 145.469 111.75 150.109 111.46L143.845 140.866C143.149 144.462 142.221 145.622 139.669 146.144L138.277 146.376L137.871 148H160.723L161.071 146.376L159.969 146.26C157.997 146.144 157.011 145.216 157.011 143.708C157.011 142.722 157.069 142.49 157.765 139.068L163.681 111.46H164.725C169.075 111.576 171.221 114.708 172.555 122.886H174.875L177.079 109.314ZM214.064 109.314H179.554L179.206 110.996L180.134 111.054C182.106 111.228 183.092 112.098 183.092 113.664C183.092 114.65 183.034 114.882 182.28 118.246L177.466 140.924C176.712 144.462 175.784 145.622 173.232 146.144L171.839 146.376L171.491 148H208.264L211.686 132.166H209.366C203.218 142.78 199.796 145.622 193.3 145.68H189.994L193.648 128.338H195.04C198.81 128.396 200.086 130.426 200.144 136.4H201.71L205.364 119.174H203.856C201.768 124.22 199.042 126.656 195.678 126.424H194.112L197.244 111.46H200.782C205.944 111.286 208.206 114.244 209.482 122.886H211.802L214.064 109.314ZM254.678 109.314H220.052L219.704 110.996L220.632 111.054C222.546 111.228 223.532 112.098 223.532 113.664C223.532 114.65 223.474 114.882 222.778 118.246L217.964 140.866C217.21 144.462 216.282 145.622 213.73 146.144L212.338 146.376L211.99 148H234.784L235.19 146.376L234.03 146.26C232.116 146.144 231.072 145.216 231.072 143.708C231.072 142.664 231.13 142.49 231.884 139.068L234.146 128.338H236.002C239.134 128.338 240.816 130.426 240.816 134.312C240.816 134.718 240.758 135.704 240.7 136.574H242.382L246.094 119.116H244.412C242.266 124.452 239.83 126.656 236.292 126.424H234.552L237.742 111.46H240.642C246.558 111.228 248.704 113.896 249.922 122.886H252.242L254.678 109.314ZM273.303 146.376L272.375 146.26C270.403 146.086 269.417 145.216 269.417 143.708C269.417 142.664 269.475 142.49 270.229 139.068L275.043 116.448C275.797 112.852 276.725 111.692 279.277 111.17L280.669 110.938L281.017 109.314H258.397L258.049 110.938L258.977 111.054C260.949 111.228 261.877 112.04 261.877 113.606C261.877 114.65 261.819 114.882 261.123 118.246L256.309 140.866C255.555 144.462 254.627 145.622 252.075 146.144L250.683 146.376L250.335 148H272.955L273.303 146.376ZM319.358 109.314H284.848L284.5 110.996L285.428 111.054C287.4 111.228 288.386 112.098 288.386 113.664C288.386 114.65 288.328 114.882 287.574 118.246L282.76 140.924C282.006 144.462 281.078 145.622 278.526 146.144L277.134 146.376L276.786 148H313.558L316.98 132.166H314.66C308.512 142.78 305.09 145.622 298.594 145.68H295.288L298.942 128.338H300.334C304.104 128.396 305.38 130.426 305.438 136.4H307.004L310.658 119.174H309.15C307.062 124.22 304.336 126.656 300.972 126.424H299.406L302.538 111.46H306.076C311.238 111.286 313.5 114.244 314.776 122.886H317.096L319.358 109.314ZM355.668 132.166H353.348C347.2 142.664 343.836 145.506 337.63 145.68H336.296L342.502 116.448C343.256 112.852 344.184 111.692 346.736 111.228L348.128 110.938L348.476 109.314H325.856L325.508 110.938L326.436 111.054C328.408 111.228 329.394 112.098 329.394 113.606C329.394 114.65 329.336 114.824 328.582 118.246L323.768 140.924C323.014 144.462 322.086 145.622 319.534 146.144L318.142 146.376L317.794 148H352.304L355.668 132.166ZM363.409 109.314L363.061 110.938L363.989 111.054C365.961 111.228 366.889 112.04 366.889 113.606C366.889 114.65 366.831 114.882 366.135 118.246L361.321 140.866C360.567 144.404 359.639 145.564 357.087 146.086L355.695 146.318L355.347 148H378.257C383.071 148 388.581 146.608 392.003 144.52C398.499 140.634 402.385 132.746 402.385 123.698C402.385 117.608 400.587 113.838 396.469 111.344C394.265 110.068 390.959 109.314 387.131 109.314H363.409ZM373.849 145.68L381.099 111.46C383.071 111.46 383.825 111.576 384.811 112.04C386.899 112.968 387.885 115.172 387.885 118.536C387.885 126.424 385.159 137.676 382.143 142.316C380.461 144.926 378.953 145.68 375.183 145.68H373.849ZM410.485 136.864C406.599 136.864 403.757 139.532 403.757 143.244C403.757 146.666 405.671 148.58 409.035 148.58C413.095 148.58 415.821 145.912 415.821 141.968C415.821 138.72 413.907 136.864 410.485 136.864ZM44.37 163.314H5.742L2.378 176.886H4.698C11.078 167.316 12.76 165.75 17.4 165.46L11.136 194.866C10.44 198.462 9.512 199.622 6.96 200.144L5.568 200.376L5.162 202H28.014L28.362 200.376L27.26 200.26C25.288 200.144 24.302 199.216 24.302 197.708C24.302 196.722 24.36 196.49 25.056 193.068L30.972 165.46H32.016C36.366 165.576 38.512 168.708 39.846 176.886H42.166L44.37 163.314ZM71.5049 163.314L71.1569 164.938C73.3029 165.228 73.9989 165.75 73.9989 167.316C73.9989 169.288 72.3169 172.942 69.7649 176.654L65.0089 183.498L63.1529 171.376C62.9789 170.1 62.8629 168.94 62.8629 168.244C62.8629 166.214 63.6169 165.576 66.9229 164.938L67.2709 163.314H44.8829L44.5349 164.938C47.8989 164.996 48.8269 166.214 49.6389 171.608L52.0169 187.094L50.3349 194.866C49.5809 198.462 48.6529 199.622 46.1009 200.144L44.7089 200.376L44.3609 202H67.2129L67.5609 200.376L66.2269 200.26C64.1389 200.028 63.3269 199.274 63.3269 197.65C63.3269 196.664 63.3849 196.432 64.0809 193.068L65.5889 185.934L72.2589 176.77C80.2629 166.214 81.1909 165.286 84.5549 164.938L84.9029 163.314H71.5049ZM101.847 163.314H84.2151L83.8671 164.88C87.5211 165.634 88.5651 166.504 88.5651 168.94C88.5651 170.1 88.3911 171.028 87.6951 173.87L83.9831 188.312C81.3731 198.23 80.2711 199.796 75.7471 200.434L75.3991 202H89.6091L89.9571 200.434C86.7091 199.97 85.6651 198.984 85.6651 196.548C85.6651 195.562 85.6651 195.504 86.5931 189.878L90.1311 171.376L102.021 202H111.243L116.927 178.336C119.653 167.432 120.697 165.75 125.395 164.88L125.685 163.314H112.287L111.939 164.88C115.071 165.344 116.057 166.446 116.057 169.404C116.057 170.738 115.709 173 114.897 176.944L112.287 189.704L101.847 163.314ZM128.18 163.314L127.832 164.938L128.76 165.054C130.732 165.228 131.66 166.04 131.66 167.606C131.66 168.65 131.602 168.882 130.906 172.246L126.092 194.866C125.338 198.404 124.41 199.564 121.858 200.086L120.466 200.318L120.118 202H143.028C147.842 202 153.352 200.608 156.774 198.52C163.27 194.634 167.156 186.746 167.156 177.698C167.156 171.608 165.358 167.838 161.24 165.344C159.036 164.068 155.73 163.314 151.902 163.314H128.18ZM138.62 199.68L145.87 165.46C147.842 165.46 148.596 165.576 149.582 166.04C151.67 166.968 152.656 169.172 152.656 172.536C152.656 180.424 149.93 191.676 146.914 196.316C145.232 198.926 143.724 199.68 139.954 199.68H138.62ZM199.329 163.314H188.367C186.163 167.954 183.147 172.884 173.171 188.196C167.197 197.302 164.355 200.028 160.817 200.376L160.469 202H175.317L175.665 200.376C173.403 200.086 172.533 199.332 172.533 197.65C172.533 195.678 173.345 193.532 175.491 189.936L176.013 189.066H186.511V192.662C186.395 198.81 185.815 199.854 181.871 200.376L181.523 202H204.607L204.955 200.376C201.417 199.854 200.547 198.984 200.315 195.214L199.329 163.314ZM186.511 170.622L186.453 186.92H177.173L186.511 170.622ZM243.067 186.166H240.747C234.599 196.664 231.235 199.506 225.029 199.68H223.695L229.901 170.448C230.655 166.852 231.583 165.692 234.135 165.228L235.527 164.938L235.875 163.314H213.255L212.907 164.938L213.835 165.054C215.807 165.228 216.793 166.098 216.793 167.606C216.793 168.65 216.735 168.824 215.981 172.246L211.167 194.924C210.413 198.462 209.485 199.622 206.933 200.144L205.541 200.376L205.193 202H239.703L243.067 186.166ZM285.317 163.314H250.807L250.459 164.996L251.387 165.054C253.359 165.228 254.345 166.098 254.345 167.664C254.345 168.65 254.287 168.882 253.533 172.246L248.719 194.924C247.965 198.462 247.037 199.622 244.485 200.144L243.093 200.376L242.745 202H279.517L282.939 186.166H280.619C274.471 196.78 271.049 199.622 264.553 199.68H261.247L264.901 182.338H266.293C270.063 182.396 271.339 184.426 271.397 190.4H272.963L276.617 173.174H275.109C273.021 178.22 270.295 180.656 266.931 180.424H265.365L268.497 165.46H272.035C277.197 165.286 279.459 168.244 280.735 176.886H283.055L285.317 163.314ZM292.163 190.864C288.277 190.864 285.435 193.532 285.435 197.244C285.435 200.666 287.349 202.58 290.713 202.58C294.773 202.58 297.499 199.912 297.499 195.968C297.499 192.72 295.585 190.864 292.163 190.864ZM18.096 256.406L30.566 230.422L30.682 256.406H40.368C41.528 253.796 42.572 251.418 42.978 250.606L46.284 243.994C57.826 220.852 58.522 219.808 63.278 218.88L63.626 217.314H49.416L49.126 218.88C51.62 219.228 52.78 220.272 52.78 222.186C52.78 223.52 52.548 224.332 50.866 228.566C48.604 234.308 48.43 234.714 47.154 237.498L43.79 244.748L44.138 217.314H32.306C31.146 222.534 26.912 233.206 21.46 244.806L21.402 226.478C21.286 220.62 22.33 218.938 26.158 218.88L26.506 217.314H3.48L3.132 218.88C7.25 219.576 7.772 220.272 7.714 225.376L8.41 256.406H18.096ZM99.4795 217.314H64.9695L64.6215 218.996L65.5495 219.054C67.5215 219.228 68.5075 220.098 68.5075 221.664C68.5075 222.65 68.4495 222.882 67.6955 226.246L62.8815 248.924C62.1275 252.462 61.1995 253.622 58.6475 254.144L57.2555 254.376L56.9075 256H93.6795L97.1015 240.166H94.7815C88.6335 250.78 85.2115 253.622 78.7155 253.68H75.4095L79.0635 236.338H80.4555C84.2255 236.396 85.5015 238.426 85.5595 244.4H87.1255L90.7795 227.174H89.2715C87.1835 232.22 84.4575 234.656 81.0935 234.424H79.5275L82.6595 219.46H86.1975C91.3595 219.286 93.6215 222.244 94.8975 230.886H97.2175L99.4795 217.314ZM135.497 216.792H134.569L132.481 218.3C127.493 216.908 125.347 216.56 122.273 216.56C117.807 216.56 113.515 217.72 110.557 219.808C107.483 221.954 105.569 225.84 105.569 229.9C105.569 233.148 106.729 235.7 109.223 238.078C110.731 239.47 112.703 240.688 116.647 242.66C120.475 244.574 121.635 245.966 121.635 248.46C121.635 251.998 118.503 254.84 114.617 254.84C110.963 254.84 107.715 252.346 106.323 248.402C105.569 246.14 105.105 243.82 104.873 240.166H102.553L99.0146 256.754H99.9426L102.611 254.724C107.599 256.29 110.383 256.754 114.907 256.754C120.359 256.754 124.071 255.71 127.435 253.274C131.089 250.606 133.235 246.662 133.235 242.66C133.235 240.398 132.481 238.02 131.263 236.454C130.103 235.004 128.885 234.134 124.999 232.046C119.837 229.262 119.721 229.204 118.387 228.218C116.879 227.058 115.951 225.318 115.951 223.52C115.951 220.504 118.213 218.474 121.519 218.474C126.681 218.474 129.987 222.302 130.915 229.378H132.829L135.497 216.792ZM172.776 240.166H170.456C164.308 250.664 160.944 253.506 154.738 253.68H153.404L159.61 224.448C160.364 220.852 161.292 219.692 163.844 219.228L165.236 218.938L165.584 217.314H142.964L142.616 218.938L143.544 219.054C145.516 219.228 146.502 220.098 146.502 221.606C146.502 222.65 146.444 222.824 145.69 226.246L140.876 248.924C140.122 252.462 139.194 253.622 136.642 254.144L135.25 254.376L134.902 256H169.412L172.776 240.166ZM215.026 217.314H180.516L180.168 218.996L181.096 219.054C183.068 219.228 184.054 220.098 184.054 221.664C184.054 222.65 183.996 222.882 183.242 226.246L178.428 248.924C177.674 252.462 176.746 253.622 174.194 254.144L172.802 254.376L172.454 256H209.226L212.648 240.166H210.328C204.18 250.78 200.758 253.622 194.262 253.68H190.956L194.61 236.338H196.002C199.772 236.396 201.048 238.426 201.106 244.4H202.672L206.326 227.174H204.818C202.73 232.22 200.004 234.656 196.64 234.424H195.074L198.206 219.46H201.744C206.906 219.286 209.168 222.244 210.444 230.886H212.764L215.026 217.314ZM244.259 217.314L243.911 218.938C246.057 219.228 246.753 219.75 246.753 221.316C246.753 223.288 245.071 226.942 242.519 230.654L237.763 237.498L235.907 225.376C235.733 224.1 235.617 222.94 235.617 222.244C235.617 220.214 236.371 219.576 239.677 218.938L240.025 217.314H217.637L217.289 218.938C220.653 218.996 221.581 220.214 222.393 225.608L224.771 241.094L223.089 248.866C222.335 252.462 221.407 253.622 218.855 254.144L217.463 254.376L217.115 256H239.967L240.315 254.376L238.981 254.26C236.893 254.028 236.081 253.274 236.081 251.65C236.081 250.664 236.139 250.432 236.835 247.068L238.343 239.934L245.013 230.77C253.017 220.214 253.945 219.286 257.309 218.938L257.657 217.314H244.259ZM254.78 244.864C250.894 244.864 248.052 247.532 248.052 251.244C248.052 254.666 249.966 256.58 253.33 256.58C257.39 256.58 260.116 253.912 260.116 249.968C260.116 246.72 258.202 244.864 254.78 244.864ZM18.096 310.406L30.566 284.422L30.682 310.406H40.368C41.528 307.796 42.572 305.418 42.978 304.606L46.284 297.994C57.826 274.852 58.522 273.808 63.278 272.88L63.626 271.314H49.416L49.126 272.88C51.62 273.228 52.78 274.272 52.78 276.186C52.78 277.52 52.548 278.332 50.866 282.566C48.604 288.308 48.43 288.714 47.154 291.498L43.79 298.748L44.138 271.314H32.306C31.146 276.534 26.912 287.206 21.46 298.806L21.402 280.478C21.286 274.62 22.33 272.938 26.158 272.88L26.506 271.314H3.48L3.132 272.88C7.25 273.576 7.772 274.272 7.714 279.376L8.41 310.406H18.096ZM89.46 271.314L89.112 272.938C91.258 273.228 91.954 273.75 91.954 275.316C91.954 277.288 90.272 280.942 87.72 284.654L82.964 291.498L81.108 279.376C80.934 278.1 80.818 276.94 80.818 276.244C80.818 274.214 81.572 273.576 84.878 272.938L85.226 271.314H62.838L62.49 272.938C65.854 272.996 66.782 274.214 67.594 279.608L69.972 295.094L68.29 302.866C67.536 306.462 66.608 307.622 64.056 308.144L62.664 308.376L62.316 310H85.168L85.516 308.376L84.182 308.26C82.094 308.028 81.282 307.274 81.282 305.65C81.282 304.664 81.34 304.432 82.036 301.068L83.544 293.934L90.214 284.77C98.218 274.214 99.146 273.286 102.51 272.938L102.858 271.314H89.46ZM134.586 270.618H133.658L130.758 272.126C127.104 270.966 124.552 270.56 120.782 270.56C113.88 270.56 108.428 272.3 104.6 275.722C99.3798 280.42 96.0158 288.772 96.0158 297.124C96.0158 306.636 100.946 310.754 112.372 310.754C120.724 310.754 124.552 308.956 129.308 302.634L127.626 300.314H127.394C123.566 305.94 119.564 308.724 115.504 308.724C112.314 308.724 110.458 306.346 110.458 302.228C110.458 297.82 112.372 288.482 114.634 281.754C117.128 274.562 118.868 272.474 122.58 272.474C126.234 272.474 128.148 275.954 129.424 284.886H131.57L134.586 270.618ZM168.301 294.166H165.981C159.833 304.664 156.469 307.506 150.263 307.68H148.929L155.135 278.448C155.889 274.852 156.817 273.692 159.369 273.228L160.761 272.938L161.109 271.314H138.489L138.141 272.938L139.069 273.054C141.041 273.228 142.027 274.098 142.027 275.606C142.027 276.65 141.969 276.824 141.215 280.246L136.401 302.924C135.647 306.462 134.719 307.622 132.167 308.144L130.775 308.376L130.427 310H164.937L168.301 294.166ZM190.948 308.376L190.02 308.26C188.048 308.086 187.062 307.216 187.062 305.708C187.062 304.664 187.12 304.49 187.874 301.068L192.688 278.448C193.442 274.852 194.37 273.692 196.922 273.17L198.314 272.938L198.662 271.314H176.042L175.694 272.938L176.622 273.054C178.594 273.228 179.522 274.04 179.522 275.606C179.522 276.65 179.464 276.882 178.768 280.246L173.954 302.866C173.2 306.462 172.272 307.622 169.72 308.144L168.328 308.376L167.98 310H190.6L190.948 308.376ZM237.119 271.314H202.493L202.145 272.996L203.073 273.054C204.987 273.228 205.973 274.098 205.973 275.664C205.973 276.65 205.915 276.882 205.219 280.246L200.405 302.866C199.651 306.462 198.723 307.622 196.171 308.144L194.779 308.376L194.431 310H217.225L217.631 308.376L216.471 308.26C214.557 308.144 213.513 307.216 213.513 305.708C213.513 304.664 213.571 304.49 214.325 301.068L216.587 290.338H218.443C221.575 290.338 223.257 292.426 223.257 296.312C223.257 296.718 223.199 297.704 223.141 298.574H224.823L228.535 281.116H226.853C224.707 286.452 222.271 288.656 218.733 288.424H216.993L220.183 273.46H223.083C228.999 273.228 231.145 275.896 232.363 284.886H234.683L237.119 271.314ZM275.465 271.314H240.839L240.491 272.996L241.419 273.054C243.333 273.228 244.319 274.098 244.319 275.664C244.319 276.65 244.261 276.882 243.565 280.246L238.751 302.866C237.997 306.462 237.069 307.622 234.517 308.144L233.125 308.376L232.777 310H255.571L255.977 308.376L254.817 308.26C252.903 308.144 251.859 307.216 251.859 305.708C251.859 304.664 251.917 304.49 252.671 301.068L254.933 290.338H256.789C259.921 290.338 261.603 292.426 261.603 296.312C261.603 296.718 261.545 297.704 261.487 298.574H263.169L266.881 281.116H265.199C263.053 286.452 260.617 288.656 257.079 288.424H255.339L258.529 273.46H261.429C267.345 273.228 269.491 275.896 270.709 284.886H273.029L275.465 271.314ZM313.694 271.314H279.184L278.836 272.996L279.764 273.054C281.736 273.228 282.722 274.098 282.722 275.664C282.722 276.65 282.664 276.882 281.91 280.246L277.096 302.924C276.342 306.462 275.414 307.622 272.862 308.144L271.47 308.376L271.122 310H307.894L311.316 294.166H308.996C302.848 304.78 299.426 307.622 292.93 307.68H289.624L293.278 290.338H294.67C298.44 290.396 299.716 292.426 299.774 298.4H301.34L304.994 281.174H303.486C301.398 286.22 298.672 288.656 295.308 288.424H293.742L296.874 273.46H300.412C305.574 273.286 307.836 276.244 309.112 284.886H311.432L313.694 271.314ZM320.54 298.864C316.654 298.864 313.812 301.532 313.812 305.244C313.812 308.666 315.726 310.58 319.09 310.58C323.15 310.58 325.876 307.912 325.876 303.968C325.876 300.72 323.962 298.864 320.54 298.864Z" fill="#1A1A1A"/>
</svg>
